<svg xmlns="http://www.w3.org/2000/svg" viewBox="0 0 128 128">
  <defs>
    <linearGradient id="g" x1="0" x2="1" y1="0" y2="1">
      <stop offset="0" stop-color="#4f8cff"/>
      <stop offset="1" stop-color="#22c55e"/>
    </linearGradient>
  </defs>
  <rect x="10" y="10" width="108" height="108" rx="24" fill="url(#g)"/>
  <path d="M44 40h38a6 6 0 0 1 6 6v42a6 6 0 0 1-6 6H44a6 6 0 0 1-6-6V46a6 6 0 0 1 6-6z" fill="rgba(0,0,0,.20)"/>
  <path d="M46 44h34a4 4 0 0 1 4 4v38a4 4 0 0 1-4 4H46a4 4 0 0 1-4-4V48a4 4 0 0 1 4-4z" fill="rgba(255,255,255,.85)"/>
  <path d="M50 54h26M50 62h26M50 70h20" stroke="rgba(0,0,0,.35)" stroke-width="4" stroke-linecap="round"/>
</svg>
